<svg xmlns="http://www.w3.org/2000/svg" width="628.942" height="240" viewBox="0 0 628.942 240"><path d="M247.643 96.834h-10.437v-83.62h-10.054v92.656h20.49v-9.036zm30.672 9.036v25.456h9.927V41.468h-9.927v55.62h-5.473v-55.62h-9.928v56.003c0 5.09 3.436 8.4 8.528 8.4h6.873zm43.905 0c5.092 0 8.529-3.181 8.529-8.4V84.744h-9.928V96.96h-5.473v-46.71h5.473v12.346h9.928V49.869c0-5.091-3.437-8.4-8.529-8.4h-8.272c-5.219 0-8.527 3.309-8.527 8.4v47.602c0 5.218 3.308 8.4 8.527 8.4h8.272zm42-64.402h-8.4c-5.218 0-8.527 3.31-8.527 8.401v47.602c0 5.218 3.309 8.4 8.528 8.4h8.4c5.09 0 8.4-3.182 8.4-8.4V84.743h-9.927V96.96h-5.473v-19.6h15.4V49.869c0-5.091-3.31-8.4-8.4-8.4zm-1.526 29.275h-5.473V50.25h5.473v20.492zm44.034 35.127c5.09 0 8.401-3.181 8.401-8.4V84.744h-9.927V96.96h-5.473v-19.6h15.4V49.869c0-5.091-3.31-8.4-8.4-8.4h-8.402c-5.217 0-8.526 3.309-8.526 8.4v47.602c0 5.218 3.309 8.4 8.526 8.4h8.401zm-7-55.62h5.474v20.493h-5.473V50.25zm-154.886 68.5h-17.69v92.655h10.054v-41.872h8.019c4.582 0 8.018-3.31 8.018-7.765v-34.746c0-4.581-3.819-8.272-8.4-8.272zm-1.654 41.619h-5.982v-32.583h5.982v32.583zm40.854-13.366h-14.765v8.784h13.365v9.927h-7.128c-5.09 0-8.273 3.181-8.273 8.274v29.019c0 5.218 3.182 8.398 8.273 8.398h17.055v-56.001c0-5.09-3.31-8.4-8.527-8.4zm-1.4 55.493h-5.473V173.86h5.473v28.636zm42.509.128h-5.473v-55.62h-9.928v56.003c0 5.09 3.436 8.398 8.528 8.398h8.272c5.091 0 8.528-3.308 8.528-8.398v-56.004h-9.927v55.621zm27.106 8.781h9.926V118.75h-9.926v92.655zm42.254 0h21.129v-9.036h-11.074v-32.836h9.292v-9.164h-9.292v-32.583h11.074v-9.036h-21.13v92.655zm46.454-92.655H430.91v92.655h20.49v-9.036h-10.435v-83.62zm41.11 83.619h-5.729v-83.62h-10.053v84.003c0 5.345 3.309 8.653 8.654 8.653h8.529c5.217 0 8.653-3.308 8.653-8.653V118.75h-10.055v83.619zm45.052-83.62h-9.547a8.255 8.255 0 0 0-8.27 8.273v84.383h10.052v-41.872h5.983v41.872h10.053v-84.383a8.255 8.255 0 0 0-8.27-8.272zm-1.782 41.62h-5.983v-32.583h5.983v32.583zm45.053-41.62h-17.817v92.656h10.055v-41.872h5.98v41.872h10.056v-39.454c0-2.673-.383-6.11-5.6-6.875 5.217-.635 5.6-4.582 5.6-7.38v-30.8c0-4.455-3.691-8.146-8.274-8.146zm-1.781 41.62h-5.981v-32.583h5.98v32.583zm45.18-41.62h-17.945v92.656h17.945c4.455 0 8.146-3.69 8.146-8.145v-76.238c0-4.581-3.691-8.272-8.146-8.272zm-1.91 83.62h-5.98v-74.583h5.98v74.583zM347.294 37.195l25.328-9.992v-7.962l-25.328 9.835v8.119zM95.656 48.687C42.831 48.687 0 91.518 0 144.344 0 197.169 42.831 240 95.656 240s95.657-42.831 95.657-95.656c0-52.826-42.831-95.657-95.657-95.657zm0 169.244c-40.653 0-73.611-32.958-73.611-73.587 0-40.654 32.958-73.612 73.611-73.612 40.63 0 73.588 32.958 73.588 73.612 0 40.629-32.959 73.587-73.588 73.587zm-33.055-23.206h69.934V171.76H89.098v-16.914h43.437v-21.537H89.098v-17.592h43.437V94.495H62.6v100.23zM140.34 0h-39.576L89.756 28.608h22.481L140.34 0z" fill="#5c6972"/><path fill="#e20588" d="M227.152 227.815h40.089V240h-40.089z"/><path fill="#f6d64f" d="M287.435 227.815h40.089V240h-40.089z"/><path fill="#0083ce" d="M347.719 227.815h40.089V240h-40.089z"/><path fill="#d20059" d="M408.002 227.815h40.089V240h-40.089z"/><path fill="#b030b9" d="M468.286 227.815h40.089V240h-40.089z"/><path fill="#07ac92" d="M528.569 227.815h40.089V240h-40.089z"/><path fill="#ff6f00" d="M588.853 227.815h40.089V240h-40.089z"/></svg>